<?xml version="1.0" encoding="UTF-8"?>
<!DOCTYPE svg PUBLIC "-//W3C//DTD SVG 1.1//EN" "http://www.w3.org/Graphics/SVG/1.1/DTD/svg11.dtd">
<!-- Creator: CorelDRAW X7 -->
<svg xmlns="http://www.w3.org/2000/svg" xml:space="preserve" width="62.8943mm" height="80.2775mm" version="1.1" style="shape-rendering:geometricPrecision; text-rendering:geometricPrecision; image-rendering:optimizeQuality; fill-rule:evenodd; clip-rule:evenodd"
viewBox="0 0 25663 32755"
 xmlns:xlink="http://www.w3.org/1999/xlink">
 <defs>
  <style type="text/css">
   <![CDATA[
    .fil4 {fill:#BDBFC1}
    .fil5 {fill:#848688}
    .fil1 {fill:#33A8FF}
    .fil0 {fill:#33CFFF}
    .fil3 {fill:#FFC6BB}
    .fil2 {fill:#FFDCC5}
   ]]>
  </style>
 </defs>
 <g id="Camada_x0020_1">
  <metadata id="CorelCorpID_0Corel-Layer"/>
  <g id="_337063648">
   <g>
    <path class="fil0" d="M25663 28466c0,278 -142,536 -377,685 -3721,2358 -8028,3604 -12454,3604 -4257,0 -8402,-1153 -12022,-3338 -2,-1 -5,-2 -7,-4 -143,-85 -285,-173 -426,-262 -234,-149 -377,-407 -377,-685 0,-3194 2597,-5794 5790,-5794l14083 0c3192,0 5790,2600 5790,5794z"/>
    <path class="fil1" d="M25663 28466c0,278 -142,536 -377,685 -3721,2358 -8028,3604 -12454,3604 -4257,0 -8402,-1153 -12022,-3338 2397,1280 8159,1719 12022,1719 3961,0 7819,-1073 11189,-3106 -220,-2097 -1890,-5358 -5108,-5358l960 0c3192,0 5790,2600 5790,5794z"/>
   </g>
   <path class="fil2" d="M15205 21277c-88,732 -80,1474 22,2205 0,1326 -1072,2399 -2395,2399 -305,0 -596,-56 -864,-161 -897,-347 -1533,-1217 -1533,-2238 103,-731 110,-1473 23,-2206 -2387,-1932 -3597,-3636 -3597,-5061 0,-151 5,-303 18,-448 62,-627 76,-2702 42,-4555l5911 -4533 4165 3194 1745 1337c-34,1854 -20,3927 42,4554 13,148 18,300 18,451 0,1425 -1210,3128 -3597,5062l0 0z"/>
   <path class="fil3" d="M15205 21277c-88,732 -80,1474 22,2205 0,1326 -1072,2399 -2395,2399 -305,0 -596,-56 -864,-161 897,-347 1532,-1218 1532,-2238 -102,-731 -110,-1473 -23,-2205 2387,-1934 3598,-3637 3598,-5062 0,-151 -6,-303 -19,-451 -41,-419 -60,-3401 -59,-5891l1744 1337c-33,1854 -19,3927 43,4554 13,148 18,300 18,451 0,1425 -1210,3128 -3597,5062l0 0z"/>
   <path class="fil4" d="M21512 7998c0,1856 -1504,3362 -3359,3362l-10 0c-1425,-4 -2641,-897 -3125,-2153 -609,460 -1366,732 -2186,732 -822,0 -1578,-272 -2187,-732 -485,1260 -1706,2153 -3135,2153 -1855,0 -3359,-1506 -3359,-3362 0,-1239 669,-2319 1665,-2902 -451,-426 -732,-1028 -732,-1696 0,-1287 1041,-2329 2326,-2329 396,0 769,99 1096,273 418,-799 1252,-1344 2215,-1344 882,0 1657,456 2103,1145l14 0c145,-225 326,-425 534,-591 429,-347 976,-554 1569,-554 1154,0 2127,783 2415,1848 238,-102 500,-159 775,-159 1085,0 1964,879 1964,1964 0,503 -188,961 -497,1309 1131,541 1914,1697 1914,3036l0 0z"/>
   <path class="fil5" d="M21512 7998c0,1856 -1504,3362 -3359,3362l-10 0c922,-599 1533,-1639 1533,-2823 0,-1338 -782,-2495 -1914,-3035 310,-348 498,-806 498,-1309 0,-1085 -879,-1965 -1964,-1965 -275,0 -537,57 -775,160 -266,-982 -1114,-1725 -2149,-1834 429,-347 975,-554 1569,-554 1154,0 2127,783 2415,1848 238,-102 500,-160 775,-160 1085,0 1964,880 1964,1965 0,503 -188,961 -498,1309 1132,541 1915,1697 1915,3036l0 0z"/>
  </g>
 </g>
</svg>
