<?xml version="1.0" encoding="UTF-8"?>
<!DOCTYPE svg PUBLIC "-//W3C//DTD SVG 1.1//EN" "http://www.w3.org/Graphics/SVG/1.1/DTD/svg11.dtd">
<!-- Creator: CorelDRAW X7 -->
<svg xmlns="http://www.w3.org/2000/svg" xml:space="preserve" width="62.8943mm" height="78.1053mm" version="1.1" style="shape-rendering:geometricPrecision; text-rendering:geometricPrecision; image-rendering:optimizeQuality; fill-rule:evenodd; clip-rule:evenodd"
viewBox="0 0 2309 2867"
 xmlns:xlink="http://www.w3.org/1999/xlink">
 <defs>
  <style type="text/css">
   <![CDATA[
    .fil1 {fill:#D2AE6D}
    .fil0 {fill:#FAA954}
    .fil3 {fill:#E52870}
    .fil2 {fill:#FF3355}
    .fil5 {fill:#FFC6BB}
    .fil4 {fill:#FFDCC5}
   ]]>
  </style>
 </defs>
 <g id="Camada_x0020_1">
  <metadata id="CorelCorpID_0Corel-Layer"/>
  <g id="_337063504">
   <path class="fil0" d="M2075 2144l-1841 0c99,-187 137,-1517 137,-1517l0 -4c0,-417 320,-597 696,-620 29,-2 58,-3 87,-3 413,0 786,175 784,627 0,0 37,1330 137,1517l0 0z"/>
   <path class="fil1" d="M2075 2144l-175 0c-99,-187 -137,-1517 -137,-1517 2,-420 -319,-601 -696,-624 29,-2 58,-3 87,-3 413,0 786,175 784,627 0,0 37,1330 137,1517l0 0z"/>
   <g>
    <path class="fil2" d="M2309 2481c0,25 -13,48 -34,62 -335,212 -722,324 -1121,324 -383,0 -756,-104 -1081,-300 0,0 -1,0 -1,-1 -13,-7 -25,-15 -38,-23 -21,-14 -34,-37 -34,-62 0,-287 234,-521 521,-521l1267 0c287,0 521,234 521,521z"/>
    <path class="fil3" d="M2309 2481c0,25 -13,48 -34,62 -335,212 -722,324 -1121,324 -383,0 -756,-104 -1081,-300 216,115 734,154 1081,154 357,0 704,-96 1007,-279 -20,-189 -170,-482 -460,-482l87 0c287,0 521,234 521,521z"/>
   </g>
   <path class="fil4" d="M1368 1834c-8,66 -7,133 2,199 0,119 -97,216 -216,216 -27,0 -53,-5 -77,-15l0 0c-81,-31 -138,-109 -138,-201 9,-66 10,-133 2,-199 -215,-174 -324,-327 -324,-455 0,-14 1,-27 2,-40 5,-57 7,-243 4,-410l517 0c120,0 218,-98 218,-218 0,104 73,192 171,213 15,3 31,5 47,5l110 0c-3,167 -2,353 4,409 1,14 1,27 1,41 0,128 -108,281 -323,455l0 0z"/>
   <path class="fil5" d="M1368 1834c-8,66 -7,133 2,199 0,119 -97,216 -216,216 -27,0 -53,-5 -77,-15 80,-31 138,-109 138,-201 -10,-66 -10,-133 -3,-199 215,-174 324,-327 324,-455 0,-14 0,-27 -2,-41 -3,-31 -4,-222 -5,-414 15,3 31,5 47,5l110 0c-3,167 -2,353 4,409 1,14 1,27 1,41 0,128 -108,281 -323,455l0 0z"/>
  </g>
 </g>
</svg>
